<svg version="1.1" id="Layer_1" xmlns="http://www.w3.org/2000/svg" xmlns:xlink="http://www.w3.org/1999/xlink" x="0px" y="0px"
	 width="100%" viewBox="0 0 1254 1254" enable-background="new 0 0 1254 1254" xml:space="preserve">
<path fill="#FEFEFE" opacity="1.000000" stroke="none" 
	d="
M819.000000,1255.000000 
	C546.000000,1255.000000 273.500000,1255.000000 1.000000,1255.000000 
	C1.000000,837.000000 1.000000,419.000000 1.000000,1.000000 
	C419.000000,1.000000 837.000000,1.000000 1255.000000,1.000000 
	C1255.000000,419.000000 1255.000000,837.000000 1255.000000,1255.000000 
	C1109.833374,1255.000000 964.666687,1255.000000 819.000000,1255.000000 
M338.866058,905.089050 
	C338.816193,901.028564 338.766357,896.968018 338.971405,892.774353 
	C338.971405,892.774353 338.860199,892.509094 339.806213,892.360474 
	C345.719574,892.360474 351.632935,892.360474 358.240662,892.360474 
	C357.680908,890.107056 357.321045,888.658508 356.137360,886.909546 
	C354.098541,886.968994 352.059753,887.028442 349.187592,886.898010 
	C345.878052,886.898010 342.568542,886.898010 339.145142,886.898010 
	C339.145142,882.774109 339.145142,879.042908 339.145142,874.991211 
	C346.232452,874.991211 353.027222,874.991211 361.788574,874.991211 
	C359.978973,872.576477 358.965790,871.224426 357.092255,869.672729 
	C354.743835,869.729004 352.395416,869.785278 349.669434,869.601013 
	C349.097137,869.680725 348.524841,869.760437 347.042419,869.625366 
	C342.363617,869.625366 337.684814,869.625366 332.897736,869.625366 
	C332.897736,873.140076 332.897736,876.052002 332.679718,879.611084 
	C332.753082,881.420593 332.826477,883.230103 332.714905,885.939209 
	C332.777557,889.614746 332.840210,893.290344 332.677094,897.743835 
	C332.677094,902.326050 332.677094,906.908264 332.677094,911.701599 
	C341.569519,911.701599 349.729340,911.756714 357.886169,911.626221 
	C358.822052,911.611206 359.741333,910.559875 360.811310,909.335022 
	C360.772278,908.893250 360.733246,908.451538 360.811157,907.179443 
	C359.341492,906.810730 357.878510,906.158325 356.400940,906.123291 
	C350.598663,905.985779 344.791748,906.042847 338.999146,905.997314 
	C338.999146,905.997314 338.970795,906.014282 338.866058,905.089050 
M505.576874,874.710022 
	C505.576874,873.057190 505.576874,871.404358 505.576874,869.410217 
	C502.051941,869.578430 499.001923,869.723999 495.043762,869.663574 
	C490.042267,869.730713 485.040802,869.797913 479.431732,869.628174 
	C479.058319,873.088135 478.684906,876.548096 478.134705,880.908386 
	C478.190826,884.269592 478.246979,887.630737 478.111755,891.734314 
	C478.178192,892.492188 478.244629,893.250122 478.137238,894.908813 
	C478.202759,898.269531 478.268280,901.630310 478.127167,905.848816 
	C478.127167,907.632935 478.127167,909.417053 478.127167,911.404480 
	C487.372284,911.404480 496.264862,911.404480 505.888367,911.095337 
	C505.926056,910.063721 505.963745,909.032043 506.213806,907.414124 
	C504.805176,906.971558 503.405273,906.182922 501.986359,906.146973 
	C496.229523,906.001038 490.466827,906.086365 484.308807,906.086365 
	C484.308807,901.397339 484.308807,897.135376 484.710663,892.699036 
	C484.710663,892.699036 484.875275,892.293091 485.817200,892.352783 
	C490.555695,892.262573 495.294189,892.172363 500.662811,892.275146 
	C501.095490,892.222839 501.528137,892.170593 502.252106,892.332825 
	C502.537079,891.875671 502.822021,891.418518 503.262329,890.315552 
	C503.207458,889.879517 503.152588,889.443481 503.279633,888.207031 
	C501.879944,887.777893 500.490875,887.025146 499.078583,886.978699 
	C494.344849,886.823120 489.602844,886.919678 484.386169,886.919678 
	C484.386169,883.813660 484.583313,881.203796 484.333740,878.637390 
	C484.053711,875.757629 485.425110,874.825928 488.814178,874.963257 
	C490.562622,874.906738 492.311096,874.850159 494.743958,875.001160 
	C497.833282,874.966797 500.922577,874.932434 504.509979,875.047241 
	C504.662872,874.965576 504.815765,874.883972 505.576874,874.710022 
M752.475952,502.552704 
	C752.475952,502.552704 752.449768,502.519623 751.852966,502.812164 
	C744.862122,508.787750 737.871277,514.763367 730.274292,521.013733 
	C728.393066,522.718933 726.511841,524.424133 723.979980,526.414856 
	C702.666077,544.182495 681.352173,561.950134 659.896667,579.835815 
	C660.942200,580.999329 661.584106,581.745605 662.259277,582.460449 
	C689.940979,611.772522 717.705750,641.006714 745.291260,670.409058 
	C786.443787,714.272034 827.442627,758.279175 868.650452,802.089905 
	C870.310913,803.855164 873.435059,805.116577 875.886963,805.132690 
	C909.380432,805.352661 942.875671,805.311523 976.370422,805.334167 
	C978.958801,805.335938 981.547180,805.334412 985.352173,805.334412 
	C913.664368,731.504578 842.928223,658.654907 772.030884,585.639282 
	C775.553284,582.610168 778.801331,579.817017 782.697266,576.836487 
	C785.150024,574.856201 787.617493,572.893799 790.053101,570.892639 
	C803.376709,559.946106 816.692505,548.989990 830.666016,537.856995 
	C834.249756,534.718628 837.744568,531.471191 841.433960,528.462341 
	C852.668274,519.300354 863.977478,510.230408 875.888306,500.932373 
	C880.976196,496.611847 886.064026,492.291290 891.894043,487.852509 
	C892.300964,487.249634 892.707886,486.646729 893.748474,485.800018 
	C895.539795,484.215485 897.331116,482.630920 899.660278,480.885590 
	C900.109619,480.560181 900.559021,480.234772 901.607483,479.993408 
	C901.873596,479.704071 902.139648,479.414764 902.809448,479.027069 
	C902.809448,479.027069 903.036011,478.678680 903.383850,478.644043 
	C903.629089,478.511139 903.710022,478.311554 904.013000,477.582275 
	C904.365173,477.107788 904.717407,476.633331 905.732605,475.908356 
	C908.894653,473.622864 912.160400,471.466949 915.202576,469.031738 
	C943.793945,446.144623 972.352234,423.216217 1000.907104,400.283661 
	C1007.519897,394.972870 1014.083679,389.600983 1020.945801,384.033386 
	C1019.986938,383.673065 1019.692749,383.465729 1019.398621,383.465668 
	C978.267517,383.455078 937.136475,383.446259 896.005493,383.521332 
	C894.628235,383.523865 892.954407,384.025604 891.920776,384.892792 
	C876.117981,398.151215 860.398743,411.509338 844.041870,425.058350 
	C830.688293,436.370300 817.334717,447.682251 803.324097,459.152557 
	C799.196289,462.723419 795.068481,466.294312 790.324036,470.117126 
	C788.555237,471.759888 786.786438,473.402679 784.381531,475.255127 
	C774.274109,483.907501 764.166687,492.559906 753.538635,501.348907 
	C753.197205,501.747253 752.855774,502.145569 752.475952,502.552704 
M372.943512,454.931671 
	C465.573242,454.925995 558.203003,454.924072 650.832703,454.886169 
	C652.580688,454.885468 654.328552,454.459076 656.735352,454.034485 
	C661.169067,449.782471 665.576599,445.502747 670.041016,441.283264 
	C689.822266,422.587280 709.619934,403.908569 730.114929,384.955994 
	C730.232788,384.838165 730.376648,384.735809 730.459351,384.597046 
	C730.514099,384.505127 730.489258,384.255310 730.486206,384.255096 
	C727.719788,384.041443 724.952148,383.669678 722.184570,383.669220 
	C610.439697,383.650299 498.694794,383.661224 386.949921,383.688263 
	C382.298248,383.689392 377.646606,383.881592 372.098969,383.774414 
	C327.157104,386.931274 291.271637,406.504547 266.709900,444.403229 
	C243.868515,479.647461 238.623291,518.042114 255.665634,556.861267 
	C276.768646,604.929749 316.313660,628.918579 367.664520,630.456116 
	C428.273010,632.270813 488.975433,630.929626 549.637024,631.026245 
	C554.116150,631.033386 558.627258,631.355286 563.067749,631.948120 
	C596.416870,636.399963 615.744873,670.210510 602.274963,701.130737 
	C592.730530,723.039917 574.688354,732.511536 551.593140,732.567566 
	C471.432190,732.762085 391.270447,732.669495 311.109131,732.588623 
	C307.395172,732.584900 304.545410,733.447021 301.737244,736.024536 
	C277.921967,757.883972 253.988892,779.615173 230.032547,801.320129 
	C228.893494,802.352112 227.201355,802.773682 225.766785,803.479492 
	C226.290298,804.101685 226.813812,804.723877 227.337326,805.346069 
	C229.817993,805.346069 232.298660,805.346191 234.779327,805.346130 
	C341.438690,805.341919 448.098022,805.344910 554.757385,805.325745 
	C570.571472,805.322937 586.003601,802.843933 600.654053,796.826355 
	C647.186584,777.713379 675.127686,743.162537 680.546936,693.259155 
	C685.773804,645.127136 666.484009,606.755005 626.277771,579.559326 
	C608.181641,567.319031 587.925110,560.483704 565.196411,558.702148 
	C562.208618,558.508484 559.221069,558.150635 556.232971,558.145813 
	C511.297791,558.073486 466.362457,558.035828 421.427185,558.016846 
	C404.954651,558.009888 388.482117,558.073059 371.195709,557.850159 
	C368.388458,557.542969 365.558502,557.371521 362.777527,556.907104 
	C341.661682,553.380920 325.907410,538.677185 321.625122,518.577820 
	C317.096558,497.322449 325.485931,476.345398 343.005646,464.440460 
	C351.815002,458.454376 361.715668,456.128632 372.943512,454.931671 
M781.342285,896.327332 
	C780.665222,895.610229 779.750000,895.005676 779.348938,894.158020 
	C776.292969,887.697876 772.947998,881.334167 770.476929,874.650635 
	C768.592957,869.554749 765.529663,868.729370 760.788513,870.057922 
	C760.788513,883.796875 760.788513,897.538696 760.788513,911.722412 
	C762.777466,911.617004 764.489075,911.526306 766.711792,911.408508 
	C766.711792,901.671021 766.711792,892.402405 766.711792,883.133789 
	C770.637756,889.591309 773.545593,896.243042 776.767700,902.738953 
	C777.492920,904.201050 779.342834,906.067871 780.624023,906.029968 
	C781.995667,905.989258 783.810547,904.172729 784.558594,902.690491 
	C787.949646,895.971313 791.032104,889.096375 794.225708,882.277466 
	C794.553772,882.355469 794.881897,882.433472 795.210022,882.511475 
	C795.210022,892.186279 795.210022,901.861145 795.210022,911.801880 
	C797.451477,911.666748 799.187256,911.562134 800.953308,911.455688 
	C800.953308,897.402527 800.953308,883.795654 800.953308,870.243042 
	C796.060303,868.538696 793.244995,869.797852 791.338867,874.792664 
	C788.620117,881.916809 785.031372,888.709045 781.342285,896.327332 
M941.671448,875.784302 
	C941.671448,883.571106 941.671448,891.357910 941.671448,899.144714 
	C934.222229,890.672241 927.894958,882.151794 921.935974,873.381226 
	C919.616272,869.966919 917.090210,868.720459 913.247192,870.113647 
	C913.247192,883.895386 913.247192,897.620178 913.247192,911.690491 
	C915.219360,911.582520 916.800903,911.495972 918.949402,911.378357 
	C918.949402,901.367981 918.949402,891.687927 918.949402,882.007812 
	C926.242554,890.404785 932.594727,899.045532 938.614868,907.911682 
	C940.895447,911.270508 943.314026,912.730591 947.248169,911.126892 
	C947.248169,897.315125 947.248169,883.595032 947.248169,869.779541 
	C945.304993,869.779541 943.697327,869.779541 941.666565,869.779541 
	C941.666565,871.620117 941.666565,873.243652 941.671448,875.784302 
M611.141602,884.797546 
	C611.076233,887.783142 610.777405,890.785278 610.987793,893.751343 
	C611.710693,903.943665 618.926819,911.440247 628.569580,912.249268 
	C639.613525,913.175903 647.878418,907.386047 650.450928,896.920593 
	C653.589722,884.151794 647.948730,872.803711 636.872620,869.604797 
	C625.297913,866.261841 615.054565,872.044128 611.141602,884.797546 
M290.058289,879.568909 
	C283.952179,870.048584 270.690521,866.406677 256.825378,870.369629 
	C256.825378,884.106567 256.825378,897.803833 256.825378,911.653442 
	C262.489990,911.653442 267.808502,911.901306 273.095947,911.601562 
	C283.963043,910.985474 290.734833,904.830444 291.779419,893.929749 
	C292.207611,889.460938 290.887665,884.824585 290.058289,879.568909 
M850.023376,897.501465 
	C850.023376,895.883606 850.023376,894.265747 850.023376,892.333374 
	C856.542236,892.333374 862.506653,892.333374 868.724182,892.333374 
	C868.724182,890.460876 868.724182,888.905579 868.724182,886.797852 
	C862.436584,886.797852 856.375916,886.797852 850.250732,886.797852 
	C850.250732,882.654358 850.250732,879.065308 850.250732,875.104614 
	C857.226196,875.104614 863.981934,875.104614 870.942383,875.104614 
	C870.942383,873.149536 870.942383,871.571960 870.942383,869.819275 
	C861.829651,869.819275 852.952393,869.819275 843.925659,869.819275 
	C843.925659,883.882385 843.925659,897.632812 843.925659,911.365356 
	C853.220825,911.365356 862.281250,911.365356 871.717041,911.365356 
	C871.598999,909.431335 871.504150,907.876648 871.382935,905.890747 
	C863.990723,905.890747 857.089172,905.890747 850.022095,905.890747 
	C850.022095,903.112854 850.022095,900.798706 850.023376,897.501465 
M691.121460,896.494690 
	C691.121460,901.423584 691.121460,906.352478 691.121460,911.414185 
	C693.395508,911.414185 695.137329,911.414185 697.524780,911.414185 
	C697.524780,905.970154 697.524780,900.747559 697.524780,895.164124 
	C701.642639,895.164124 705.128235,895.351929 708.586792,895.125488 
	C716.063354,894.635925 720.923462,889.455994 721.000854,882.172729 
	C721.073364,875.345764 716.735596,870.494995 709.250061,869.937439 
	C703.342163,869.497375 697.375366,869.848877 691.122864,869.848877 
	C691.122864,878.604675 691.122864,887.050842 691.121460,896.494690 
M424.156860,907.782837 
	C429.021484,895.289978 433.886139,882.797119 438.771667,870.250549 
	C434.309509,868.564087 432.282410,869.921021 430.811707,874.145142 
	C427.552643,883.505920 423.681732,892.653748 419.705750,902.792603 
	C415.800354,892.736450 412.067413,883.731201 408.838165,874.548889 
	C407.260651,870.063232 404.951843,868.488770 400.263672,870.340637 
	C405.263672,883.081726 410.151550,895.760315 415.294891,908.334473 
	C415.877655,909.759216 417.737518,911.060974 419.289551,911.597900 
	C421.728790,912.441711 423.354584,911.036560 424.156860,907.782837 
M1002.055176,886.519592 
	C1002.055176,894.782288 1002.055176,903.044922 1002.055176,911.445251 
	C1004.467102,911.445251 1006.226562,911.445251 1008.526062,911.445251 
	C1008.526062,899.308044 1008.526062,887.401123 1008.526062,874.976624 
	C1013.635864,874.976624 1018.221008,874.976624 1022.849243,874.976624 
	C1022.849243,872.973938 1022.849243,871.505310 1022.849243,869.874878 
	C1011.113281,869.874878 999.548401,869.874878 987.685486,869.874878 
	C987.797791,871.777100 987.891479,873.362976 988.004395,875.274536 
	C992.826416,875.274536 997.267334,875.274536 1002.061401,875.274536 
	C1002.061401,878.923035 1002.061401,882.224976 1002.055176,886.519592 
M547.226074,897.492188 
	C547.226074,902.097229 547.226074,906.702271 547.226074,911.522095 
	C556.380310,911.522095 564.966064,911.522095 573.808228,911.522095 
	C573.808228,909.704651 573.808228,908.122925 573.808228,906.090454 
	C567.045532,906.090454 560.468201,906.090454 553.402954,906.090454 
	C553.402954,893.746155 553.402954,881.842834 553.402954,869.870789 
	C551.141602,869.870789 549.383118,869.870789 547.227783,869.870789 
	C547.227783,878.918335 547.227783,887.706360 547.226074,897.492188 
z"/>
<path fill="#182230" opacity="1.000000" stroke="none" 
	d="
M566.008362,558.964417 
	C587.925110,560.483704 608.181641,567.319031 626.277771,579.559326 
	C666.484009,606.755005 685.773804,645.127136 680.546936,693.259155 
	C675.127686,743.162537 647.186584,777.713379 600.654053,796.826355 
	C586.003601,802.843933 570.571472,805.322937 554.757385,805.325745 
	C448.098022,805.344910 341.438690,805.341919 234.779327,805.346130 
	C232.298660,805.346191 229.817993,805.346069 227.337326,805.346069 
	C226.813812,804.723877 226.290298,804.101685 225.766785,803.479492 
	C227.201355,802.773682 228.893494,802.352112 230.032547,801.320129 
	C253.988892,779.615173 277.921967,757.883972 301.737244,736.024536 
	C304.545410,733.447021 307.395172,732.584900 311.109131,732.588623 
	C391.270447,732.669495 471.432190,732.762085 551.593140,732.567566 
	C574.688354,732.511536 592.730530,723.039917 602.274963,701.130737 
	C615.744873,670.210510 596.416870,636.399963 563.067749,631.948120 
	C558.627258,631.355286 554.116150,631.033386 549.637024,631.026245 
	C488.975433,630.929626 428.273010,632.270813 367.664520,630.456116 
	C316.313660,628.918579 276.768646,604.929749 255.665634,556.861267 
	C238.623291,518.042114 243.868515,479.647461 266.709900,444.403229 
	C291.271637,406.504547 327.157104,386.931274 372.839478,384.178192 
	C375.558502,384.714264 377.537048,384.962006 379.515625,384.962311 
	C485.820740,384.979645 592.125854,384.969360 698.430969,384.985748 
	C708.757874,384.987335 719.084778,385.140717 729.411682,385.223663 
	C709.619934,403.908569 689.822266,422.587280 670.041016,441.283264 
	C665.576599,445.502747 661.169067,449.782471 656.139648,453.794281 
	C653.750000,453.370209 651.956299,453.027374 650.162292,453.025909 
	C613.045837,452.995728 575.929443,453.004608 538.812988,453.005249 
	C485.052399,453.006165 431.291809,452.988800 377.531372,453.083893 
	C375.691132,453.087128 373.852844,454.217316 372.013641,454.822266 
	C361.715668,456.128632 351.815002,458.454376 343.005646,464.440460 
	C325.485931,476.345398 317.096558,497.322449 321.625122,518.577820 
	C325.907410,538.677185 341.661682,553.380920 362.777527,556.907104 
	C365.558502,557.371521 368.388458,557.542969 371.704010,558.364868 
	C373.892822,559.251404 375.573029,559.946716 377.253876,559.948303 
	C438.456818,560.006104 499.659821,560.007751 560.862732,559.958008 
	C562.578247,559.956665 564.293152,559.310120 566.008362,558.964417 
z"/>
<path fill="#026AEB" opacity="1.000000" stroke="none" 
	d="
M782.049316,577.023865 
	C778.801331,579.817017 775.553284,582.610168 772.030884,585.639282 
	C842.928223,658.654907 913.664368,731.504578 985.352173,805.334412 
	C981.547180,805.334412 978.958801,805.335938 976.370422,805.334167 
	C942.875671,805.311523 909.380432,805.352661 875.886963,805.132690 
	C873.435059,805.116577 870.310913,803.855164 868.650452,802.089905 
	C827.442627,758.279175 786.443787,714.272034 745.291260,670.409058 
	C717.705750,641.006714 689.940979,611.772522 662.259277,582.460449 
	C661.584106,581.745605 660.942200,580.999329 659.896667,579.835815 
	C681.352173,561.950134 702.666077,544.182495 724.457031,526.667175 
	C726.329773,529.198853 728.069031,531.047852 730.897339,529.350830 
	C733.876465,527.563354 733.173096,525.007690 731.757385,522.499146 
	C731.435608,521.929077 731.171204,521.326538 730.880432,520.738953 
	C737.871277,514.763367 744.862122,508.787750 752.288086,503.041718 
	C752.599426,504.053253 752.763306,505.215210 752.308167,505.559875 
	C746.218689,510.171844 745.057861,517.501465 742.088379,523.822327 
	C740.489746,527.225403 741.630066,533.677368 743.886353,533.440186 
	C746.514832,533.164001 748.986389,530.794373 751.379272,529.123047 
	C752.628174,528.250732 753.562012,526.927490 754.638123,525.807861 
	C755.199951,526.091553 755.761780,526.375244 756.323669,526.658936 
	C755.769592,529.411316 755.771729,532.444275 754.552612,534.861206 
	C751.433960,541.043884 751.046265,541.878784 751.963440,549.036011 
	C752.068298,549.854126 751.704834,550.851379 752.054382,551.497070 
	C753.141846,553.505615 754.066833,556.326965 755.806580,557.067810 
	C757.822876,557.926514 761.005798,557.615479 763.021790,556.555725 
	C766.491394,554.731750 771.056274,555.446716 773.085632,558.784302 
	C776.624329,564.604187 781.325317,569.827515 782.049316,577.023865 
z"/>
<path fill="#027AFC" opacity="1.000000" stroke="none" 
	d="
M844.660095,424.844177 
	C860.398743,411.509338 876.117981,398.151215 891.920776,384.892792 
	C892.954407,384.025604 894.628235,383.523865 896.005493,383.521332 
	C937.136475,383.446259 978.267517,383.455078 1019.398621,383.465668 
	C1019.692749,383.465729 1019.986938,383.673065 1020.945801,384.033386 
	C1014.083679,389.600983 1007.519897,394.972870 1000.907104,400.283661 
	C972.352234,423.216217 943.793945,446.144623 915.202576,469.031738 
	C912.160400,471.466949 908.894653,473.622864 905.243591,475.701416 
	C903.833130,473.801575 903.034363,472.024628 901.950745,470.442871 
	C901.107727,469.212402 899.944641,468.189117 898.861450,467.137939 
	C897.124939,465.452789 895.218872,463.928345 893.593262,462.145660 
	C889.169983,457.294800 884.881470,452.525055 881.923767,446.344910 
	C880.437012,443.238281 877.100159,441.049103 876.791626,436.788971 
	C876.623047,434.461121 874.720093,432.258881 873.134949,429.064209 
	C870.978638,431.767365 869.577576,433.722565 867.957397,435.475128 
	C867.084106,436.419769 865.339783,437.914581 864.832581,437.634216 
	C859.249451,434.547821 853.810120,431.196716 848.386108,427.829865 
	C847.043640,426.996521 845.896851,425.847900 844.660095,424.844177 
z"/>
<path fill="#0173F7" opacity="1.000000" stroke="none" 
	d="
M844.350952,424.951263 
	C845.896851,425.847900 847.043640,426.996521 848.386108,427.829865 
	C853.810120,431.196716 859.249451,434.547821 864.832581,437.634216 
	C865.339783,437.914581 867.084106,436.419769 867.957397,435.475128 
	C869.577576,433.722565 870.978638,431.767365 873.134949,429.064209 
	C874.720093,432.258881 876.623047,434.461121 876.791626,436.788971 
	C877.100159,441.049103 880.437012,443.238281 881.923767,446.344910 
	C884.881470,452.525055 889.169983,457.294800 893.593262,462.145660 
	C895.218872,463.928345 897.124939,465.452789 898.861450,467.137939 
	C899.944641,468.189117 901.107727,469.212402 901.950745,470.442871 
	C903.034363,472.024628 903.833130,473.801575 904.912109,475.826660 
	C904.717407,476.633331 904.365173,477.107788 903.692139,477.889465 
	C903.213989,478.325653 903.102234,478.486328 903.036011,478.678680 
	C903.036011,478.678680 902.809448,479.027069 902.327881,479.111328 
	C901.567017,479.433502 901.287659,479.671417 901.008362,479.909363 
	C900.559021,480.234772 900.109619,480.560181 899.028076,480.898743 
	C898.081787,478.870544 897.767761,476.829132 897.513123,475.173889 
	C895.834961,473.924133 894.049866,473.039001 892.888733,471.637024 
	C890.501038,468.754120 888.944092,470.565674 887.249695,472.258881 
	C885.551819,473.955658 883.902832,475.374023 886.614929,477.918976 
	C889.118408,480.268219 890.973877,483.308105 893.114746,486.043823 
	C892.707886,486.646729 892.300964,487.249634 891.431396,487.492310 
	C887.436707,483.922363 881.312866,485.885468 879.559814,491.236328 
	C878.727600,493.776642 877.718872,495.084381 875.123657,495.564697 
	C874.010315,495.770721 873.069214,496.907623 871.499756,498.006836 
	C873.076416,499.314941 874.166992,500.219788 875.257568,501.124634 
	C863.977478,510.230408 852.668274,519.300354 841.433960,528.462341 
	C837.744568,531.471191 834.249756,534.718628 830.295532,537.588745 
	C828.357544,534.888672 824.596680,531.815063 829.048645,529.766052 
	C835.315918,526.881409 835.798523,520.494141 839.251465,515.985718 
	C840.832825,513.920837 840.206909,511.918518 837.443909,510.966095 
	C836.200745,510.537567 834.902954,510.036926 833.879028,509.246399 
	C830.759277,506.837799 829.073181,508.240021 827.884949,511.272064 
	C827.151001,513.145142 826.456116,515.033569 825.743713,516.915100 
	C825.099731,517.046570 824.455750,517.178101 823.811768,517.309570 
	C822.541443,514.761230 821.289307,512.203674 819.993835,509.668213 
	C819.236450,508.186035 818.499512,506.681000 817.595398,505.288879 
	C815.832947,502.575165 812.234741,499.725220 812.526550,497.309753 
	C812.992249,493.455048 812.260620,491.388611 809.202637,489.585327 
	C808.709656,489.294617 808.094910,488.324066 808.245178,487.961304 
	C810.609253,482.253632 806.540588,479.893188 802.834351,477.332001 
	C801.400391,476.341064 799.950623,475.373016 798.508057,474.394562 
	C798.270508,476.182526 798.051697,477.973389 797.776611,479.755585 
	C797.731873,480.045502 797.438660,480.297058 796.859131,481.172180 
	C792.958130,479.195251 787.508972,480.401184 785.017578,475.045410 
	C786.786438,473.402679 788.555237,471.759888 790.797424,470.320068 
	C793.082642,470.512970 795.652405,471.276703 796.582031,470.366119 
	C802.200012,464.862793 802.714478,464.782074 808.562195,470.001190 
	C811.487488,472.612000 814.708008,474.891998 817.794983,477.321564 
	C818.308838,476.851532 818.822754,476.381500 819.336609,475.911438 
	C818.352173,474.275635 817.717957,472.197052 816.316406,471.088593 
	C812.410217,467.999176 807.632263,465.856323 806.528198,460.194824 
	C806.421936,459.649780 804.864807,459.387665 803.981201,458.994202 
	C817.334717,447.682251 830.688293,436.370300 844.350952,424.951263 
z"/>
<path fill="#016EF1" opacity="1.000000" stroke="none" 
	d="
M784.699585,475.150269 
	C787.508972,480.401184 792.958130,479.195251 796.859131,481.172180 
	C797.438660,480.297058 797.731873,480.045502 797.776611,479.755585 
	C798.051697,477.973389 798.270508,476.182526 798.508057,474.394562 
	C799.950623,475.373016 801.400391,476.341064 802.834351,477.332001 
	C806.540588,479.893188 810.609253,482.253632 808.245178,487.961304 
	C808.094910,488.324066 808.709656,489.294617 809.202637,489.585327 
	C812.260620,491.388611 812.992249,493.455048 812.526550,497.309753 
	C812.234741,499.725220 815.832947,502.575165 817.595398,505.288879 
	C818.499512,506.681000 819.236450,508.186035 819.993835,509.668213 
	C821.289307,512.203674 822.541443,514.761230 823.811768,517.309570 
	C824.455750,517.178101 825.099731,517.046570 825.743713,516.915100 
	C826.456116,515.033569 827.151001,513.145142 827.884949,511.272064 
	C829.073181,508.240021 830.759277,506.837799 833.879028,509.246399 
	C834.902954,510.036926 836.200745,510.537567 837.443909,510.966095 
	C840.206909,511.918518 840.832825,513.920837 839.251465,515.985718 
	C835.798523,520.494141 835.315918,526.881409 829.048645,529.766052 
	C824.596680,531.815063 828.357544,534.888672 829.968018,537.678833 
	C816.692505,548.989990 803.376709,559.946106 790.053101,570.892639 
	C787.617493,572.893799 785.150024,574.856201 782.373291,576.930176 
	C781.325317,569.827515 776.624329,564.604187 773.085632,558.784302 
	C771.056274,555.446716 766.491394,554.731750 763.021790,556.555725 
	C761.005798,557.615479 757.822876,557.926514 755.806580,557.067810 
	C754.066833,556.326965 753.141846,553.505615 752.054382,551.497070 
	C751.704834,550.851379 752.068298,549.854126 751.963440,549.036011 
	C751.046265,541.878784 751.433960,541.043884 754.552612,534.861206 
	C755.771729,532.444275 755.769592,529.411316 756.323669,526.658936 
	C755.761780,526.375244 755.199951,526.091553 754.638123,525.807861 
	C753.562012,526.927490 752.628174,528.250732 751.379272,529.123047 
	C748.986389,530.794373 746.514832,533.164001 743.886353,533.440186 
	C741.630066,533.677368 740.489746,527.225403 742.088379,523.822327 
	C745.057861,517.501465 746.218689,510.171844 752.308167,505.559875 
	C752.763306,505.215210 752.599426,504.053253 752.586548,502.895447 
	C752.449768,502.519623 752.475952,502.552704 752.800659,502.601685 
	C753.436707,502.171204 753.747986,501.691742 754.059265,501.212280 
	C764.166687,492.559906 774.274109,483.907501 784.699585,475.150269 
z"/>
<path fill="#1D2736" opacity="1.000000" stroke="none" 
	d="
M781.578247,895.985168 
	C785.031372,888.709045 788.620117,881.916809 791.338867,874.792664 
	C793.244995,869.797852 796.060303,868.538696 800.953308,870.243042 
	C800.953308,883.795654 800.953308,897.402527 800.953308,911.455688 
	C799.187256,911.562134 797.451477,911.666748 795.210022,911.801880 
	C795.210022,901.861145 795.210022,892.186279 795.210022,882.511475 
	C794.881897,882.433472 794.553772,882.355469 794.225708,882.277466 
	C791.032104,889.096375 787.949646,895.971313 784.558594,902.690491 
	C783.810547,904.172729 781.995667,905.989258 780.624023,906.029968 
	C779.342834,906.067871 777.492920,904.201050 776.767700,902.738953 
	C773.545593,896.243042 770.637756,889.591309 766.711792,883.133789 
	C766.711792,892.402405 766.711792,901.671021 766.711792,911.408508 
	C764.489075,911.526306 762.777466,911.617004 760.788513,911.722412 
	C760.788513,897.538696 760.788513,883.796875 760.788513,870.057922 
	C765.529663,868.729370 768.592957,869.554749 770.476929,874.650635 
	C772.947998,881.334167 776.292969,887.697876 779.348938,894.158020 
	C779.750000,895.005676 780.665222,895.610229 781.578247,895.985168 
z"/>
<path fill="#1F2838" opacity="1.000000" stroke="none" 
	d="
M941.669006,875.325684 
	C941.666565,873.243652 941.666565,871.620117 941.666565,869.779541 
	C943.697327,869.779541 945.304993,869.779541 947.248169,869.779541 
	C947.248169,883.595032 947.248169,897.315125 947.248169,911.126892 
	C943.314026,912.730591 940.895447,911.270508 938.614868,907.911682 
	C932.594727,899.045532 926.242554,890.404785 918.949402,882.007812 
	C918.949402,891.687927 918.949402,901.367981 918.949402,911.378357 
	C916.800903,911.495972 915.219360,911.582520 913.247192,911.690491 
	C913.247192,897.620178 913.247192,883.895386 913.247192,870.113647 
	C917.090210,868.720459 919.616272,869.966919 921.935974,873.381226 
	C927.894958,882.151794 934.222229,890.672241 941.671448,899.144714 
	C941.671448,891.357910 941.671448,883.571106 941.669006,875.325684 
z"/>
<path fill="#1D2736" opacity="1.000000" stroke="none" 
	d="
M611.240112,884.408081 
	C615.054565,872.044128 625.297913,866.261841 636.872620,869.604797 
	C647.948730,872.803711 653.589722,884.151794 650.450928,896.920593 
	C647.878418,907.386047 639.613525,913.175903 628.569580,912.249268 
	C618.926819,911.440247 611.710693,903.943665 610.987793,893.751343 
	C610.777405,890.785278 611.076233,887.783142 611.240112,884.408081 
M644.312988,895.454407 
	C643.888000,890.923706 644.487976,885.971619 642.833008,881.946655 
	C638.915100,872.417908 625.207214,871.188477 620.309082,879.970154 
	C618.063416,883.996338 617.222290,889.476562 617.602234,894.146179 
	C618.241760,902.005981 623.085938,906.248291 629.905273,906.918274 
	C636.416138,907.557861 641.323975,903.879883 644.312988,895.454407 
z"/>
<path fill="#242D3C" opacity="1.000000" stroke="none" 
	d="
M290.210632,879.916626 
	C290.887665,884.824585 292.207611,889.460938 291.779419,893.929749 
	C290.734833,904.830444 283.963043,910.985474 273.095947,911.601562 
	C267.808502,911.901306 262.489990,911.653442 256.825378,911.653442 
	C256.825378,897.803833 256.825378,884.106567 256.825378,870.369629 
	C270.690521,866.406677 283.952179,870.048584 290.210632,879.916626 
M263.616791,906.151428 
	C266.770294,906.136536 269.944153,906.346191 273.073364,906.062988 
	C281.146454,905.332397 286.033234,899.030212 285.836517,889.905212 
	C285.647797,881.148926 280.466461,875.361938 272.372040,875.009705 
	C269.224091,874.872742 266.065338,874.983948 262.160431,875.277161 
	C261.775330,875.921997 261.060211,876.564148 261.054962,877.212036 
	C260.984467,885.934143 260.965210,894.657654 261.088348,903.378662 
	C261.101013,904.276917 262.109467,905.161133 263.616791,906.151428 
z"/>
<path fill="#1D2736" opacity="1.000000" stroke="none" 
	d="
M850.022705,897.992981 
	C850.022095,900.798706 850.022095,903.112854 850.022095,905.890747 
	C857.089172,905.890747 863.990723,905.890747 871.382935,905.890747 
	C871.504150,907.876648 871.598999,909.431335 871.717041,911.365356 
	C862.281250,911.365356 853.220825,911.365356 843.925659,911.365356 
	C843.925659,897.632812 843.925659,883.882385 843.925659,869.819275 
	C852.952393,869.819275 861.829651,869.819275 870.942383,869.819275 
	C870.942383,871.571960 870.942383,873.149536 870.942383,875.104614 
	C863.981934,875.104614 857.226196,875.104614 850.250732,875.104614 
	C850.250732,879.065308 850.250732,882.654358 850.250732,886.797852 
	C856.375916,886.797852 862.436584,886.797852 868.724182,886.797852 
	C868.724182,888.905579 868.724182,890.460876 868.724182,892.333374 
	C862.506653,892.333374 856.542236,892.333374 850.023376,892.333374 
	C850.023376,894.265747 850.023376,895.883606 850.022705,897.992981 
z"/>
<path fill="#1F2838" opacity="1.000000" stroke="none" 
	d="
M691.122192,895.995850 
	C691.122864,887.050842 691.122864,878.604675 691.122864,869.848877 
	C697.375366,869.848877 703.342163,869.497375 709.250061,869.937439 
	C716.735596,870.494995 721.073364,875.345764 721.000854,882.172729 
	C720.923462,889.455994 716.063354,894.635925 708.586792,895.125488 
	C705.128235,895.351929 701.642639,895.164124 697.524780,895.164124 
	C697.524780,900.747559 697.524780,905.970154 697.524780,911.414185 
	C695.137329,911.414185 693.395508,911.414185 691.121460,911.414185 
	C691.121460,906.352478 691.121460,901.423584 691.122192,895.995850 
M714.178955,879.941772 
	C710.415527,871.994873 703.439636,876.074768 697.587952,874.924500 
	C697.587952,880.236328 697.587952,884.925964 697.587952,889.855591 
	C700.574707,889.855591 703.214417,889.952637 705.844788,889.836121 
	C711.892761,889.568115 714.162415,887.096069 714.178955,879.941772 
z"/>
<path fill="#1F2838" opacity="1.000000" stroke="none" 
	d="
M424.039917,908.153809 
	C423.354584,911.036560 421.728790,912.441711 419.289551,911.597900 
	C417.737518,911.060974 415.877655,909.759216 415.294891,908.334473 
	C410.151550,895.760315 405.263672,883.081726 400.263672,870.340637 
	C404.951843,868.488770 407.260651,870.063232 408.838165,874.548889 
	C412.067413,883.731201 415.800354,892.736450 419.705750,902.792603 
	C423.681732,892.653748 427.552643,883.505920 430.811707,874.145142 
	C432.282410,869.921021 434.309509,868.564087 438.771667,870.250549 
	C433.886139,882.797119 429.021484,895.289978 424.039917,908.153809 
z"/>
<path fill="#091224" opacity="1.000000" stroke="none" 
	d="
M372.478577,454.876953 
	C373.852844,454.217316 375.691132,453.087128 377.531372,453.083893 
	C431.291809,452.988800 485.052399,453.006165 538.812988,453.005249 
	C575.929443,453.004608 613.045837,452.995728 650.162292,453.025909 
	C651.956299,453.027374 653.750000,453.370209 655.810181,453.892700 
	C654.328552,454.459076 652.580688,454.885468 650.832703,454.886169 
	C558.203003,454.924072 465.573242,454.925995 372.478577,454.876953 
z"/>
<path fill="#1D2736" opacity="1.000000" stroke="none" 
	d="
M1002.058289,886.023254 
	C1002.061401,882.224976 1002.061401,878.923035 1002.061401,875.274536 
	C997.267334,875.274536 992.826416,875.274536 988.004395,875.274536 
	C987.891479,873.362976 987.797791,871.777100 987.685486,869.874878 
	C999.548401,869.874878 1011.113281,869.874878 1022.849243,869.874878 
	C1022.849243,871.505310 1022.849243,872.973938 1022.849243,874.976624 
	C1018.221008,874.976624 1013.635864,874.976624 1008.526062,874.976624 
	C1008.526062,887.401123 1008.526062,899.308044 1008.526062,911.445251 
	C1006.226562,911.445251 1004.467102,911.445251 1002.055176,911.445251 
	C1002.055176,903.044922 1002.055176,894.782288 1002.058289,886.023254 
z"/>
<path fill="#242D3C" opacity="1.000000" stroke="none" 
	d="
M547.226929,896.993286 
	C547.227783,887.706360 547.227783,878.918335 547.227783,869.870789 
	C549.383118,869.870789 551.141602,869.870789 553.402954,869.870789 
	C553.402954,881.842834 553.402954,893.746155 553.402954,906.090454 
	C560.468201,906.090454 567.045532,906.090454 573.808228,906.090454 
	C573.808228,908.122925 573.808228,909.704651 573.808228,911.522095 
	C564.966064,911.522095 556.380310,911.522095 547.226074,911.522095 
	C547.226074,906.702271 547.226074,902.097229 547.226929,896.993286 
z"/>
<path fill="#091224" opacity="1.000000" stroke="none" 
	d="
M565.602417,558.833252 
	C564.293152,559.310120 562.578247,559.956665 560.862732,559.958008 
	C499.659821,560.007751 438.456818,560.006104 377.253876,559.948303 
	C375.573029,559.946716 373.892822,559.251404 372.110962,558.491943 
	C388.482117,558.073059 404.954651,558.009888 421.427185,558.016846 
	C466.362457,558.035828 511.297791,558.073486 556.232971,558.145813 
	C559.221069,558.150635 562.208618,558.508484 565.602417,558.833252 
z"/>
<path fill="#010819" opacity="1.000000" stroke="none" 
	d="
M729.763306,385.089844 
	C719.084778,385.140717 708.757874,384.987335 698.430969,384.985748 
	C592.125854,384.969360 485.820740,384.979645 379.515625,384.962311 
	C377.537048,384.962006 375.558502,384.714264 373.287476,384.283386 
	C377.646606,383.881592 382.298248,383.689392 386.949921,383.688263 
	C498.694794,383.661224 610.439697,383.650299 722.184570,383.669220 
	C724.952148,383.669678 727.719788,384.041443 730.486206,384.255096 
	C730.489258,384.255310 730.514099,384.505127 730.459351,384.597046 
	C730.376648,384.735809 730.232788,384.838165 729.763306,385.089844 
z"/>
<path fill="#1F2838" opacity="1.000000" stroke="none" 
	d="
M480.039307,869.865112 
	C485.040802,869.797913 490.042267,869.730713 495.664703,870.093018 
	C497.794312,871.246033 499.302979,871.969482 500.219604,872.409058 
	C498.368011,873.125854 496.213776,873.959717 494.059540,874.793640 
	C492.311096,874.850159 490.562622,874.906738 488.323792,874.540039 
	C485.023956,871.683716 483.918823,874.233704 483.262512,876.050842 
	C480.273224,884.326843 483.688843,889.009399 492.507172,888.966736 
	C493.974304,888.959656 495.442047,888.533508 496.906097,888.553406 
	C498.971649,888.581360 501.034027,888.844727 503.097748,889.007446 
	C503.152588,889.443481 503.207458,889.879517 502.937622,890.770020 
	C502.395508,891.522339 502.178131,891.820312 501.960754,892.118286 
	C501.528137,892.170593 501.095490,892.222839 500.061371,891.872192 
	C494.598389,891.743835 489.736816,892.018494 484.875275,892.293091 
	C484.875275,892.293091 484.710663,892.699036 484.200928,892.997925 
	C483.496979,897.043945 482.899597,900.837646 483.324890,904.513123 
	C483.476074,905.819763 486.054871,907.731018 487.623718,907.831421 
	C493.728210,908.222168 499.872131,907.996704 506.001404,908.000427 
	C505.963745,909.032043 505.926056,910.063721 505.263855,910.892456 
	C499.875153,910.463806 495.112732,910.187866 490.346375,910.026367 
	C485.683380,909.868347 480.374176,911.363525 478.333801,904.991028 
	C478.268280,901.630310 478.202759,898.269531 478.523071,894.392761 
	C478.706940,892.915100 478.505035,891.953552 478.303131,890.991943 
	C478.246979,887.630737 478.190826,884.269592 478.586731,880.335815 
	C479.372284,876.463806 479.705780,873.164429 480.039307,869.865112 
z"/>
<path fill="#1F2838" opacity="1.000000" stroke="none" 
	d="
M350.046997,869.841553 
	C352.395416,869.785278 354.743835,869.729004 357.659363,870.101074 
	C359.320648,874.567200 356.733917,873.873047 354.319244,873.677551 
	C350.549408,873.372192 346.732513,872.844482 342.997223,873.154175 
	C339.648651,873.431885 336.477386,874.669495 336.973877,879.304688 
	C337.384644,883.139587 335.437500,888.009399 342.313416,888.137512 
	C346.683105,888.218933 351.038086,889.090820 355.399658,889.608215 
	C355.377899,890.076965 355.356140,890.545654 355.334381,891.014343 
	C351.614258,891.014343 347.884674,890.858154 344.178040,891.081665 
	C342.383240,891.189880 340.631439,892.010803 338.860199,892.509094 
	C338.860199,892.509094 338.971405,892.774353 338.479431,892.985596 
	C336.951172,897.573914 335.255127,902.001709 338.970795,906.014282 
	C338.970795,906.014282 338.999146,905.997314 339.085388,906.408997 
	C340.640350,907.218811 342.101868,907.926025 343.579071,907.960449 
	C349.281403,908.093445 354.988739,908.011536 360.694214,908.009766 
	C360.733246,908.451538 360.772278,908.893250 360.292633,909.668457 
	C351.158813,910.001953 342.543701,910.001953 334.460876,910.001953 
	C333.897614,905.288940 333.400238,901.127441 332.902863,896.965881 
	C332.840210,893.290344 332.777557,889.614746 333.095856,885.245850 
	C333.283783,882.689697 333.090759,880.826782 332.897736,878.963928 
	C332.897736,876.052002 332.897736,873.140076 332.897736,869.625366 
	C337.684814,869.625366 342.363617,869.625366 347.546936,870.046509 
	C348.472656,870.809753 348.893829,871.151794 349.315033,871.493896 
	C349.559021,870.943115 349.803009,870.392273 350.046997,869.841553 
z"/>
<path fill="#242D3C" opacity="1.000000" stroke="none" 
	d="
M339.333191,892.434814 
	C340.631439,892.010803 342.383240,891.189880 344.178040,891.081665 
	C347.884674,890.858154 351.614258,891.014343 355.334381,891.014343 
	C355.356140,890.545654 355.377899,890.076965 355.399658,889.608215 
	C351.038086,889.090820 346.683105,888.218933 342.313416,888.137512 
	C335.437500,888.009399 337.384644,883.139587 336.973877,879.304688 
	C336.477386,874.669495 339.648651,873.431885 342.997223,873.154175 
	C346.732513,872.844482 350.549408,873.372192 354.319244,873.677551 
	C356.733917,873.873047 359.320648,874.567200 358.089539,870.200928 
	C358.965790,871.224426 359.978973,872.576477 361.788574,874.991211 
	C353.027222,874.991211 346.232452,874.991211 339.145142,874.991211 
	C339.145142,879.042908 339.145142,882.774109 339.145142,886.898010 
	C342.568542,886.898010 345.878052,886.898010 349.866394,887.254639 
	C352.683868,887.477478 354.822540,887.343750 356.961212,887.209961 
	C357.321045,888.658508 357.680908,890.107056 358.240662,892.360474 
	C351.632935,892.360474 345.719574,892.360474 339.333191,892.434814 
z"/>
<path fill="#016EF1" opacity="1.000000" stroke="none" 
	d="
M803.652649,459.073364 
	C804.864807,459.387665 806.421936,459.649780 806.528198,460.194824 
	C807.632263,465.856323 812.410217,467.999176 816.316406,471.088593 
	C817.717957,472.197052 818.352173,474.275635 819.336609,475.911438 
	C818.822754,476.381500 818.308838,476.851532 817.794983,477.321564 
	C814.708008,474.891998 811.487488,472.612000 808.562195,470.001190 
	C802.714478,464.782074 802.200012,464.862793 796.582031,470.366119 
	C795.652405,471.276703 793.082642,470.512970 791.105713,470.194092 
	C795.068481,466.294312 799.196289,462.723419 803.652649,459.073364 
z"/>
<path fill="#027AFC" opacity="1.000000" stroke="none" 
	d="
M893.431641,485.921906 
	C890.973877,483.308105 889.118408,480.268219 886.614929,477.918976 
	C883.902832,475.374023 885.551819,473.955658 887.249695,472.258881 
	C888.944092,470.565674 890.501038,468.754120 892.888733,471.637024 
	C894.049866,473.039001 895.834961,473.924133 897.513123,475.173889 
	C897.767761,476.829132 898.081787,478.870544 898.759155,480.979156 
	C897.331116,482.630920 895.539795,484.215485 893.431641,485.921906 
z"/>
<path fill="#027AFC" opacity="1.000000" stroke="none" 
	d="
M875.572937,501.028503 
	C874.166992,500.219788 873.076416,499.314941 871.499756,498.006836 
	C873.069214,496.907623 874.010315,495.770721 875.123657,495.564697 
	C877.718872,495.084381 878.727600,493.776642 879.559814,491.236328 
	C881.312866,485.885468 887.436707,483.922363 891.060303,487.551422 
	C886.064026,492.291290 880.976196,496.611847 875.572937,501.028503 
z"/>
<path fill="#242D3C" opacity="1.000000" stroke="none" 
	d="
M332.789978,897.354858 
	C333.400238,901.127441 333.897614,905.288940 334.460876,910.001953 
	C342.543701,910.001953 351.158813,910.001953 360.221130,909.995483 
	C359.741333,910.559875 358.822052,911.611206 357.886169,911.626221 
	C349.729340,911.756714 341.569519,911.701599 332.677094,911.701599 
	C332.677094,906.908264 332.677094,902.326050 332.789978,897.354858 
z"/>
<path fill="#242D3C" opacity="1.000000" stroke="none" 
	d="
M503.188690,888.607239 
	C501.034027,888.844727 498.971649,888.581360 496.906097,888.553406 
	C495.442047,888.533508 493.974304,888.959656 492.507172,888.966736 
	C483.688843,889.009399 480.273224,884.326843 483.262512,876.050842 
	C483.918823,874.233704 485.023956,871.683716 487.894104,874.453125 
	C485.425110,874.825928 484.053711,875.757629 484.333740,878.637390 
	C484.583313,881.203796 484.386169,883.813660 484.386169,886.919678 
	C489.602844,886.919678 494.344849,886.823120 499.078583,886.978699 
	C500.490875,887.025146 501.879944,887.777893 503.188690,888.607239 
z"/>
<path fill="#242D3C" opacity="1.000000" stroke="none" 
	d="
M506.107605,907.707275 
	C499.872131,907.996704 493.728210,908.222168 487.623718,907.831421 
	C486.054871,907.731018 483.476074,905.819763 483.324890,904.513123 
	C482.899597,900.837646 483.496979,897.043945 484.000000,893.085083 
	C484.308807,897.135376 484.308807,901.397339 484.308807,906.086365 
	C490.466827,906.086365 496.229523,906.001038 501.986359,906.146973 
	C503.405273,906.182922 504.805176,906.971558 506.107605,907.707275 
z"/>
<path fill="#242D3C" opacity="1.000000" stroke="none" 
	d="
M494.401733,874.897400 
	C496.213776,873.959717 498.368011,873.125854 500.219604,872.409058 
	C499.302979,871.969482 497.794312,871.246033 496.118774,870.196045 
	C499.001923,869.723999 502.051941,869.578430 505.576874,869.410217 
	C505.576874,871.404358 505.576874,873.057190 505.171387,874.618164 
	C504.514557,874.650208 504.263245,874.774170 504.011902,874.898071 
	C500.922577,874.932434 497.833282,874.966797 494.401733,874.897400 
z"/>
<path fill="#242D3C" opacity="1.000000" stroke="none" 
	d="
M478.230469,905.419922 
	C480.374176,911.363525 485.683380,909.868347 490.346375,910.026367 
	C495.112732,910.187866 499.875153,910.463806 504.898376,911.046997 
	C496.264862,911.404480 487.372284,911.404480 478.127167,911.404480 
	C478.127167,909.417053 478.127167,907.632935 478.230469,905.419922 
z"/>
<path fill="#016EF1" opacity="1.000000" stroke="none" 
	d="
M730.577393,520.876343 
	C731.171204,521.326538 731.435608,521.929077 731.757385,522.499146 
	C733.173096,525.007690 733.876465,527.563354 730.897339,529.350830 
	C728.069031,531.047852 726.329773,529.198853 724.782349,526.524414 
	C726.511841,524.424133 728.393066,522.718933 730.577393,520.876343 
z"/>
<path fill="#242D3C" opacity="1.000000" stroke="none" 
	d="
M360.752686,907.594604 
	C354.988739,908.011536 349.281403,908.093445 343.579071,907.960449 
	C342.101868,907.926025 340.640350,907.218811 339.079102,906.424133 
	C344.791748,906.042847 350.598663,905.985779 356.400940,906.123291 
	C357.878510,906.158325 359.341492,906.810730 360.752686,907.594604 
z"/>
<path fill="#242D3C" opacity="1.000000" stroke="none" 
	d="
M485.346252,892.322998 
	C489.736816,892.018494 494.598389,891.743835 499.746307,891.775635 
	C495.294189,892.172363 490.555695,892.262573 485.346252,892.322998 
z"/>
<path fill="#242D3C" opacity="1.000000" stroke="none" 
	d="
M338.918427,905.551636 
	C335.255127,902.001709 336.951172,897.573914 338.351990,893.052124 
	C338.766357,896.968018 338.816193,901.028564 338.918427,905.551636 
z"/>
<path fill="#242D3C" opacity="1.000000" stroke="none" 
	d="
M479.735504,869.746582 
	C479.705780,873.164429 479.372284,876.463806 478.675140,879.885620 
	C478.684906,876.548096 479.058319,873.088135 479.735504,869.746582 
z"/>
<path fill="#242D3C" opacity="1.000000" stroke="none" 
	d="
M332.788727,879.287476 
	C333.090759,880.826782 333.283783,882.689697 333.188324,884.796082 
	C332.826477,883.230103 332.753082,881.420593 332.788727,879.287476 
z"/>
<path fill="#1F2838" opacity="1.000000" stroke="none" 
	d="
M356.549286,887.059753 
	C354.822540,887.343750 352.683868,887.477478 350.283081,887.349548 
	C352.059753,887.028442 354.098541,886.968994 356.549286,887.059753 
z"/>
<path fill="#242D3C" opacity="1.000000" stroke="none" 
	d="
M478.207458,891.363159 
	C478.505035,891.953552 478.706940,892.915100 478.609985,893.942383 
	C478.244629,893.250122 478.178192,892.492188 478.207458,891.363159 
z"/>
<path fill="#242D3C" opacity="1.000000" stroke="none" 
	d="
M349.858215,869.721252 
	C349.803009,870.392273 349.559021,870.943115 349.315033,871.493896 
	C348.893829,871.151794 348.472656,870.809753 348.002014,870.153931 
	C348.524841,869.760437 349.097137,869.680725 349.858215,869.721252 
z"/>
<path fill="#242D3C" opacity="1.000000" stroke="none" 
	d="
M502.106445,892.225586 
	C502.178131,891.820312 502.395508,891.522339 502.859924,891.092896 
	C502.822021,891.418518 502.537079,891.875671 502.106445,892.225586 
z"/>
<path fill="#026AEB" opacity="1.000000" stroke="none" 
	d="
M753.798950,501.280579 
	C753.747986,501.691742 753.436707,502.171204 752.819885,502.597290 
	C752.855774,502.145569 753.197205,501.747253 753.798950,501.280579 
z"/>
<path fill="#027AFC" opacity="1.000000" stroke="none" 
	d="
M903.209961,478.661377 
	C903.102234,478.486328 903.213989,478.325653 903.499023,478.121033 
	C903.710022,478.311554 903.629089,478.511139 903.209961,478.661377 
z"/>
<path fill="#027AFC" opacity="1.000000" stroke="none" 
	d="
M901.307922,479.951355 
	C901.287659,479.671417 901.567017,479.433502 902.126038,479.160522 
	C902.139648,479.414764 901.873596,479.704071 901.307922,479.951355 
z"/>
<path fill="#1F2838" opacity="1.000000" stroke="none" 
	d="
M504.260956,874.972656 
	C504.263245,874.774170 504.514557,874.650208 504.867279,874.664307 
	C504.815765,874.883972 504.662872,874.965576 504.260956,874.972656 
z"/>
<path fill="#F8F8F8" opacity="1.000000" stroke="none" 
	d="
M644.227661,895.851562 
	C641.323975,903.879883 636.416138,907.557861 629.905273,906.918274 
	C623.085938,906.248291 618.241760,902.005981 617.602234,894.146179 
	C617.222290,889.476562 618.063416,883.996338 620.309082,879.970154 
	C625.207214,871.188477 638.915100,872.417908 642.833008,881.946655 
	C644.487976,885.971619 643.888000,890.923706 644.227661,895.851562 
z"/>
<path fill="#F8F8F8" opacity="1.000000" stroke="none" 
	d="
M262.911499,874.982178 
	C266.065338,874.983948 269.224091,874.872742 272.372040,875.009705 
	C280.466461,875.361938 285.647797,881.148926 285.836517,889.905212 
	C286.033234,899.030212 281.146454,905.332397 273.073364,906.062988 
	C269.944153,906.346191 266.770294,906.136536 263.091919,905.631226 
	C262.681854,895.068054 262.796661,885.025085 262.911499,874.982178 
z"/>
<path fill="#010819" opacity="1.000000" stroke="none" 
	d="
M262.535950,875.129639 
	C262.796661,885.025085 262.681854,895.068054 262.611450,905.581421 
	C262.109467,905.161133 261.101013,904.276917 261.088348,903.378662 
	C260.965210,894.657654 260.984467,885.934143 261.054962,877.212036 
	C261.060211,876.564148 261.775330,875.921997 262.535950,875.129639 
z"/>
<path fill="#F8F8F8" opacity="1.000000" stroke="none" 
	d="
M714.263733,880.351074 
	C714.162415,887.096069 711.892761,889.568115 705.844788,889.836121 
	C703.214417,889.952637 700.574707,889.855591 697.587952,889.855591 
	C697.587952,884.925964 697.587952,880.236328 697.587952,874.924500 
	C703.439636,876.074768 710.415527,871.994873 714.263733,880.351074 
z"/>
</svg>